<svg width="12" height="12" viewBox="0 0 12 12" fill="none" xmlns="http://www.w3.org/2000/svg">
<g clip-path="url(#clip0_8_75)">
<path d="M4.07143 0.5625C4.07143 0.250781 3.78482 0 3.42857 0C3.07232 0 2.78571 0.250781 2.78571 0.5625V1.5H1.71429C0.76875 1.5 0 2.17266 0 3V3.375V4.5V10.5C0 11.3273 0.76875 12 1.71429 12H10.2857C11.2312 12 12 11.3273 12 10.5V4.5V3.375V3C12 2.17266 11.2312 1.5 10.2857 1.5H9.21429V0.5625C9.21429 0.250781 8.92768 0 8.57143 0C8.21518 0 7.92857 0.250781 7.92857 0.5625V1.5H4.07143V0.5625ZM1.28571 4.5H3.42857V5.8125H1.28571V4.5ZM1.28571 6.9375H3.42857V8.4375H1.28571V6.9375ZM4.71429 6.9375H7.28571V8.4375H4.71429V6.9375ZM8.57143 6.9375H10.7143V8.4375H8.57143V6.9375ZM10.7143 5.8125H8.57143V4.5H10.7143V5.8125ZM10.7143 9.5625V10.5C10.7143 10.7063 10.5214 10.875 10.2857 10.875H8.57143V9.5625H10.7143ZM7.28571 9.5625V10.875H4.71429V9.5625H7.28571ZM3.42857 9.5625V10.875H1.71429C1.47857 10.875 1.28571 10.7063 1.28571 10.5V9.5625H3.42857ZM7.28571 5.8125H4.71429V4.5H7.28571V5.8125Z" fill="#1D3283"/>
</g>
<defs>
<clipPath id="clip0_8_75">
<rect width="12" height="12" fill="white"/>
</clipPath>
</defs>
</svg>
