<svg width="11" height="12" viewBox="0 0 11 12" fill="none" xmlns="http://www.w3.org/2000/svg">
<path d="M8.94241 1.96404C8.3433 1.39216 7.37098 1.39216 6.77187 1.96404L2.25402 6.27654C1.22031 7.26326 1.22031 8.86169 2.25402 9.84841C3.28772 10.8351 4.96228 10.8351 5.99598 9.84841L9.72813 6.28591C9.99576 6.03044 10.4328 6.03044 10.7004 6.28591C10.9681 6.54138 10.9681 6.95857 10.7004 7.21404L6.9683 10.7765C5.39687 12.2765 2.85312 12.2765 1.2817 10.7765C-0.289733 9.27654 -0.289733 6.84841 1.2817 5.34841L5.79955 1.03591C6.93638 -0.0492432 8.7779 -0.0492432 9.91473 1.03591C11.0516 2.12107 11.0516 3.87888 9.91473 4.96404L5.5933 9.08904C4.89107 9.75935 3.75179 9.75935 3.04955 9.08904C2.34732 8.41872 2.34732 7.33123 3.04955 6.66091L6.58527 3.28591C6.8529 3.03044 7.28995 3.03044 7.55759 3.28591C7.82522 3.54138 7.82522 3.95857 7.55759 4.21404L4.02187 7.58904C3.85737 7.74607 3.85737 8.00388 4.02187 8.16091C4.18638 8.31794 4.45647 8.31794 4.62098 8.16091L8.94241 4.03591C9.54152 3.46404 9.54152 2.53591 8.94241 1.96404Z" fill="#A2A2A2"/>
</svg>
